<svg xmlns="http://www.w3.org/2000/svg" viewBox="0 0 420.05994 147.85711"><defs><style>.cls-1{fill:#22bedc;}.cls-2{isolation:isolate;}.cls-3,.cls-5{fill:#22bfdd;}.cls-3{fill-rule:evenodd;}.cls-4{fill:#6b6b6b;}</style></defs><title>логолого</title><g id="Слой_2" data-name="Слой 2"><g id="Векторный_смарт-объект_копия_22_Слой_1_Изображение" data-name="Векторный смарт-объект копия 22 + Слой 1 Изображение"><path class="cls-1" d="M106.99576,126.78517a12.4947,12.4947,0,0,1-11.65225,8.749q-20.333.05008-40.66619.01324a23.94076,23.94076,0,0,1-4.41881-.13017,11.86527,11.86527,0,0,1-9.90573-11.952q-.04037-34.19056.00027-68.38122a12.13075,12.13075,0,0,1,24.25947.07708q.04473,27.29243.01849,54.585c.00008.47191,0,.94383,0,1.43469H83.11977c0-.64076,0-1.15407,0-1.66738Q83.11514,61.04669,83.11354,12.58A12.31669,12.31669,0,0,1,95.34754,0a12.17652,12.17652,0,0,1,12.02959,10.98725q-.00346,6.49115-.00687,12.98223c-.01172.359-.03369.718-.03371,1.077q-.00237,43.92274-.00023,87.8455c0,.35914.01844.71829.02827,1.07743-.00969,2.429-.02759,4.85805-.01835,7.287.00078.20677-.04475,2.14789-.04353,3.375a7.68327,7.68327,0,0,1-.307,2.15377Z"/><path class="cls-1" d="M10.6151,136.53438c-.48327-.1471-.96141-.31443-1.45059-.4382A11.94476,11.94476,0,0,1,.0384,124.57375Q-.03066,109.33838.03729,94.10254a12.12961,12.12961,0,0,1,24.25617.048q.04809,15.05562.00555,30.1115a12.20774,12.20774,0,0,1-10.17329,12.03976,3.59994,3.59994,0,0,0-.63062.23256Z"/></g><g id="Прямоугольник_скругл._углы_1_копия_28" data-name="Прямоугольник, скругл. углы 1 копия 28" class="cls-2"><g id="Прямоугольник_скругл._углы_1_копия_28-2" data-name="Прямоугольник, скругл. углы 1 копия 28"><path class="cls-3" d="M333.18708,114.93371H269.72864V126.9204h63.45844a.90373.90373,0,0,0,.90375-.90374V115.8374A.90371.90371,0,0,0,333.18708,114.93371Z"/></g></g><g id="цифры"><path class="cls-4" d="M142.06385,70.1452v50.89453a1.55849,1.55849,0,0,0,.39209.97851,1.30107,1.30107,0,0,0,1.07812.48926h10.68457a1.38508,1.38508,0,0,0,1.56836-1.56543V70.1452a4.70626,4.70626,0,0,1,.39209-2.34864q.78369-1.07592,3.03907-1.07666h7.646q2.25366,0,2.84278.832a4.3326,4.3326,0,0,1,.58789,2.49561v51.08984a2.62565,2.62565,0,0,0,.147,1.17481q.14721.19629,1.0293.19531h2.15673a4.7445,4.7445,0,0,1,2.35254.3916q1.07739.78516,1.07813,3.03418v18.49805q0,2.25-.833,2.83789a4.56172,4.56172,0,0,1-2.59766.58789h-7.15576q-2.25659,0-2.84277-.832a4.54518,4.54518,0,0,1-.58838-2.59375v-7.73242q0-1.46778-1.56836-1.46778H130.98719a4.72408,4.72408,0,0,1-2.353-.3916q-1.0796-.78222-1.07812-3.03418V70.1452a4.70626,4.70626,0,0,1,.39209-2.34864q.78369-1.07592,3.03906-1.07666h7.64551q2.25439,0,2.84277.832A4.5434,4.5434,0,0,1,142.06385,70.1452Z"/><path class="cls-4" d="M192.34949,135.23113h-7.4497a4.72408,4.72408,0,0,1-2.353-.3916q-1.07959-.78222-1.07813-3.03418V70.1452a4.70637,4.70637,0,0,1,.39209-2.34864q.78369-1.07592,3.03907-1.07666h7.6455q2.25439,0,2.84278.832a4.5434,4.5434,0,0,1,.58838,2.59327v32.00488L209.1117,70.1452a7.93554,7.93554,0,0,1,1.61719-2.78907,3.29634,3.29634,0,0,1,2.20556-.63623h7.94q2.25292,0,2.84375.832a4.55567,4.55567,0,0,1,.58789,2.59327v61.66015a4.7307,4.7307,0,0,1-.39258,2.34961q-.78516,1.07813-3.03906,1.07617h-7.64551q-2.2566,0-2.84278-.832a4.54086,4.54086,0,0,1-.58837-2.59375V98.235l-12.939,33.57031a5.34506,5.34506,0,0,1-1.81348,2.79A5.06741,5.06741,0,0,1,192.34949,135.23113Z"/><path class="cls-4" d="M256.4574,132.78387v-4.4043a2.16443,2.16443,0,0,0-.4414-1.22266,1.20177,1.20177,0,0,0-.93164-.63671h-5.09668q-7.05764,0-11.3711-2.83789-7.45019-4.89258-7.45019-17.42188V92.85223q0-8.80884,5.29394-13.89844,5.29248-5.0874,13.72364-5.08936h4.90039a1.212,1.212,0,0,0,1.373-1.37011v-3.8169a4.70983,4.70983,0,0,1,.39161-2.34912q.78369-1.07592,3.03906-1.07666h7.64551q2.2544,0,2.84277.832a4.5416,4.5416,0,0,1,.58789,2.59375v3.8169a1.2116,1.2116,0,0,0,1.373,1.37011h4.90136q8.42871,0,13.72266,5.08936,5.29395,5.09033,5.29395,13.89844v13.4082q0,9.78809-4.60743,15.02344-4.60839,5.23682-14.21386,5.23633h-5.09668a1.19889,1.19889,0,0,0-.93164.63671,2.16437,2.16437,0,0,0-.44141,1.22266v4.4043a4.72213,4.72213,0,0,1-.3916,2.34961q-.78516,1.07519-3.03906,1.07617h-7.64551q-2.25587,0-2.84278-.832A4.53739,4.53739,0,0,1,256.4574,132.78387Zm0-18.791v-27.209q0-1.17481-1.0791-1.17432h-2.74414a6.17886,6.17886,0,0,0-4.21484,1.37012q-2.74659,2.34888-2.74512,8.12353v10.17871q0,4.60182,1.71582,7.04688a5.22451,5.22451,0,0,0,4.46,2.44678h3.52832c.26074-.064.50586-.12989.73535-.1958C256.34217,114.5158,256.4574,114.32,256.4574,113.99285Zm14.50684-27.209v26.915a.95182.95182,0,0,0,1.0791,1.07666h3.52832q6.17578,0,6.17578-9.49366V95.1032q0-5.77368-2.64648-8.02588a6.52186,6.52186,0,0,0-4.31348-1.46777h-2.74414C271.32264,85.60955,270.96424,86.00066,270.96424,86.78387Z"/><path class="cls-5" d="M306.54725,66.7199h17.84082q14.70409,0,20.68359,7.73194,3.91846,5.09032,3.9209,13.21289,0,9.9829-6.51855,14.97461-6.52149,4.99144-17.10547,4.9917H319.0951a1.29863,1.29863,0,0,0-1.4707,1.46777v22.70654q0,2.25294-.833,2.83887a4.56463,4.56463,0,0,1-2.59766.58691h-7.64648a4.72437,4.72437,0,0,1-2.35254-.3916q-1.07959-.78222-1.07813-3.03418V70.1452a4.69382,4.69382,0,0,1,.39258-2.34864Q304.29139,66.72064,306.54725,66.7199Zm12.15527,28.1875h5.68555a9.4482,9.4482,0,0,0,6.32226-2.20215,7.15291,7.15291,0,0,0,2.59766-5.72558,7.35642,7.35642,0,0,0-1.86231-5.28516q-2.35253-2.44555-7.15527-2.44677h-5.3916a1.12563,1.12563,0,0,0-1.27441,1.27246V93.9284Q317.6244,94.90838,318.70252,94.9074Z"/><path class="cls-4" d="M355.85389,131.80535V70.1452a4.70761,4.70761,0,0,1,.3916-2.34864q.78369-1.07592,3.03906-1.07666h7.64551q2.25439,0,2.84277.832a4.53908,4.53908,0,0,1,.58887,2.59327V90.01385a1.03854,1.03854,0,0,0,1.17578,1.17431h7.25391q10.88085,0,16.86035,6.166,5.978,6.16626,5.97949,16.63867,0,12.52881-8.52832,17.71485-5.88135,3.52295-15.58594,3.52343H359.28455q-2.25585,0-2.84277-.832A4.54519,4.54519,0,0,1,355.85389,131.80535Zm14.50781-26.42578v15.07227q0,1.37256,1.27441,1.37109h6.3711a6.91916,6.91916,0,0,0,5.63672-2.74121,9.84883,9.84883,0,0,0,2.20508-6.36133,8.56969,8.56969,0,0,0-2.4502-6.166,8.69706,8.69706,0,0,0-6.56738-2.54493h-5.09766A1.2117,1.2117,0,0,0,370.3617,105.37957Zm35.19043,26.42578V70.1452a4.6937,4.6937,0,0,1,.39258-2.34864q.78222-1.07592,3.03808-1.07666h7.64649a4.74138,4.74138,0,0,1,2.35254.3916q1.07665.78442,1.07812,3.0337v61.66015q0,2.25294-.833,2.83887a4.5646,4.5646,0,0,1-2.59765.58691h-7.64649a4.7243,4.7243,0,0,1-2.35253-.3916Q405.55067,134.05731,405.55213,131.80535Z"/></g></g></svg>